<svg width="40" height="40" viewBox="0 0 40 40" fill="none" xmlns="http://www.w3.org/2000/svg">
<path d="M5.87942 35.6634L2.73755 0.422501H37.2626L34.1176 35.6581L19.9791 39.5778L5.87942 35.6634Z" fill="#535353"/>
<path d="M20.0004 36.5819L31.4251 33.4144L34.1129 3.30375H20.0004V36.5819Z" fill="#7A7A7A"/>
<path d="M20.0004 16.0716H25.7197L26.1147 11.6456H20.0004V7.32344H30.8385L30.7347 8.48312L29.6722 20.3938H20.0004V16.0716Z" fill="white"/>
<path d="M20.0259 27.2966L20.0069 27.3022L15.1934 26.0025L14.8856 22.5553H10.5475L11.1528 29.3419L20.0062 31.7991L20.0259 31.7934V27.2966Z" fill="#EBEBEB"/>
<path d="M25.3522 20.2109L24.8316 25.9991L20.011 27.3003V31.7972L28.8716 29.3416L28.9366 28.6112L29.6885 20.2109H25.3522Z" fill="white"/>
<path d="M20.015 7.32344V11.6456H9.57499L9.48842 10.6744L9.29155 8.48312L9.18811 7.32344H20.015ZM20.0003 16.0722V20.3944H15.2475L15.1609 19.4231L14.9637 17.2319L14.8606 16.0722H20.0003Z" fill="#EBEBEB"/>
</svg>
