<svg width="36" height="36" viewBox="0 0 36 36" fill="none" xmlns="http://www.w3.org/2000/svg">
<path d="M33.1125 0H3.075C1.43438 0 0 1.18125 0 2.80313V32.9062C0 34.5375 1.43438 35.9906 3.075 35.9906H33.1031C34.7531 35.9906 35.9906 34.5281 35.9906 32.9062V2.80313C36 1.18125 34.7531 0 33.1125 0ZM11.1562 30H6V13.9688H11.1562V30ZM8.75625 11.5312H8.71875C7.06875 11.5312 6 10.3031 6 8.76562C6 7.2 7.09687 6 8.78437 6C10.4719 6 11.5031 7.19063 11.5406 8.76562C11.5406 10.3031 10.4719 11.5312 8.75625 11.5312ZM30 30H24.8438V21.2344C24.8438 19.1344 24.0938 17.7 22.2281 17.7C20.8031 17.7 19.9594 18.6656 19.5844 19.6031C19.4437 19.9406 19.4062 20.4 19.4062 20.8688V30H14.25V13.9688H19.4062V16.2C20.1562 15.1313 21.3281 13.5938 24.0563 13.5938C27.4406 13.5938 30 15.825 30 20.6344V30V30Z" fill="url(#paint0_linear_10_475)"/>
<defs>
<linearGradient id="paint0_linear_10_475" x1="17.9953" y1="-4.55857e-07" x2="24.2976" y2="29.6577" gradientUnits="userSpaceOnUse">
<stop stop-color="#CFB4DC"/>
<stop offset="1" stop-color="#AD46DD"/>
</linearGradient>
</defs>
</svg>
