<svg width="30" height="30" viewBox="0 0 30 30" fill="none" xmlns="http://www.w3.org/2000/svg">
<path d="M15 18.4375C16.0625 18.4375 17.026 18.1875 17.8906 17.6875C18.7552 17.1875 19.4479 16.5208 19.9688 15.6875C19.2604 15.1458 18.4896 14.7396 17.6562 14.4687C16.8229 14.1979 15.9375 14.0625 15 14.0625C14.0625 14.0625 13.1771 14.1979 12.3438 14.4687C11.5104 14.7396 10.7396 15.1458 10.0312 15.6875C10.5521 16.5208 11.2448 17.1875 12.1094 17.6875C12.974 18.1875 13.9375 18.4375 15 18.4375ZM15 12.1875C15.6042 12.1875 16.1198 11.974 16.5469 11.5469C16.974 11.1198 17.1875 10.6042 17.1875 10C17.1875 9.39583 16.974 8.88021 16.5469 8.45312C16.1198 8.02604 15.6042 7.8125 15 7.8125C14.3958 7.8125 13.8802 8.02604 13.4531 8.45312C13.026 8.88021 12.8125 9.39583 12.8125 10C12.8125 10.6042 13.026 11.1198 13.4531 11.5469C13.8802 11.974 14.3958 12.1875 15 12.1875ZM15 25.0312C17.7708 22.5104 19.8177 20.224 21.1406 18.1719C22.4635 16.1198 23.125 14.3125 23.125 12.75C23.125 10.2917 22.3385 8.28125 20.7656 6.71875C19.1927 5.15625 17.2708 4.375 15 4.375C12.7292 4.375 10.8073 5.15625 9.23437 6.71875C7.66146 8.28125 6.875 10.2917 6.875 12.75C6.875 14.3125 7.55208 16.1198 8.90625 18.1719C10.2604 20.224 12.2917 22.5104 15 25.0312ZM15 27.5C11.6458 24.6458 9.14063 21.9948 7.48438 19.5469C5.82813 17.099 5 14.8333 5 12.75C5 9.625 6.00521 7.13542 8.01562 5.28125C10.026 3.42708 12.3542 2.5 15 2.5C17.6458 2.5 19.974 3.42708 21.9844 5.28125C23.9948 7.13542 25 9.625 25 12.75C25 14.8333 24.1719 17.099 22.5156 19.5469C20.8594 21.9948 18.3542 24.6458 15 27.5Z" fill="#C090D7"/>
</svg>
