<svg width="34" height="28" viewBox="0 0 34 28" fill="none" xmlns="http://www.w3.org/2000/svg">
<path d="M2.55 27.7C1.87 27.7 1.275 27.445 0.765 26.935C0.255 26.425 0 25.83 0 25.15V3.05C0 2.37 0.255 1.775 0.765 1.265C1.275 0.755 1.87 0.5 2.55 0.5H31.45C32.13 0.5 32.725 0.755 33.235 1.265C33.745 1.775 34 2.37 34 3.05V25.15C34 25.83 33.745 26.425 33.235 26.935C32.725 27.445 32.13 27.7 31.45 27.7H2.55ZM17 14.61C17.1417 14.61 17.2621 14.5888 17.3612 14.5463C17.4604 14.5038 17.5667 14.4542 17.68 14.3975L31.025 5.685C31.1667 5.6 31.2729 5.48667 31.3438 5.345C31.4146 5.20333 31.45 5.0475 31.45 4.8775C31.45 4.50917 31.2871 4.21875 30.9613 4.00625C30.6354 3.79375 30.3025 3.80083 29.9625 4.0275L17 12.315L4.08 4.0275C3.74 3.80083 3.4 3.78667 3.06 3.985C2.72 4.18333 2.55 4.46667 2.55 4.835C2.55 5.005 2.5925 5.16792 2.6775 5.32375C2.7625 5.47958 2.86167 5.6 2.975 5.685L16.32 14.3975C16.4333 14.4542 16.5396 14.5038 16.6388 14.5463C16.7379 14.5888 16.8583 14.61 17 14.61Z" fill="url(#paint0_linear_10_471)"/>
<defs>
<linearGradient id="paint0_linear_10_471" x1="17" y1="0.5" x2="20.8706" y2="23.268" gradientUnits="userSpaceOnUse">
<stop stop-color="#CFB4DC"/>
<stop offset="1" stop-color="#AD46DD"/>
</linearGradient>
</defs>
</svg>
