<svg width="40" height="40" viewBox="0 0 40 40" fill="none" xmlns="http://www.w3.org/2000/svg">
<g clip-path="url(#clip0_17_501)">
<path d="M19.8288 0.0112495C9.69976 0.0112495 10.3322 4.4038 10.3322 4.4038L10.3435 8.95463H20.0094V10.3209H6.50428C6.50428 10.3209 0.0227051 9.58582 0.0227051 19.8059C0.0227051 30.0264 5.67999 29.6639 5.67999 29.6639H9.05623V24.9212C9.05623 24.9212 8.87422 19.264 14.6232 19.264H24.2101C24.2101 19.264 29.5963 19.351 29.5963 14.0584V5.30731C29.5963 5.30731 30.4144 0.0112495 19.8288 0.0112495ZM14.499 3.07159C14.7274 3.07138 14.9536 3.11622 15.1647 3.20353C15.3758 3.29085 15.5675 3.41893 15.729 3.58044C15.8906 3.74195 16.0186 3.93373 16.1059 4.14479C16.1933 4.35586 16.2381 4.58207 16.2379 4.81049C16.2381 5.0389 16.1933 5.26511 16.1059 5.47618C16.0186 5.68724 15.8906 5.87902 15.729 6.04053C15.5675 6.20204 15.3758 6.33012 15.1647 6.41744C14.9536 6.50475 14.7274 6.54959 14.499 6.54938C14.2706 6.54959 14.0444 6.50475 13.8333 6.41744C13.6222 6.33012 13.4305 6.20204 13.269 6.04053C13.1074 5.87902 12.9794 5.68724 12.892 5.47618C12.8047 5.26511 12.7599 5.0389 12.7601 4.81049C12.7599 4.58207 12.8047 4.35586 12.892 4.14479C12.9794 3.93373 13.1074 3.74195 13.269 3.58044C13.4305 3.41893 13.6222 3.29085 13.8333 3.20353C14.0444 3.11622 14.2706 3.07138 14.499 3.07159Z" fill="#7A7A7A"/>
<path d="M20.1164 39.7034C30.2455 39.7034 29.613 35.3109 29.613 35.3109L29.6018 30.7602H19.9357V29.394H33.4408C33.4408 29.394 39.9224 30.129 39.9224 19.9086C39.9224 9.68831 34.2651 10.0508 34.2651 10.0508H30.8889V14.7933C30.8889 14.7933 31.0709 20.4506 25.3219 20.4506H15.735C15.735 20.4506 10.3488 20.3636 10.3488 25.6563V34.4075C10.3488 34.4075 9.53087 39.7034 20.1163 39.7034H20.1164ZM25.4462 36.6434C25.2178 36.6436 24.9916 36.5988 24.7806 36.5115C24.5695 36.4242 24.3777 36.2961 24.2162 36.1346C24.0547 35.9731 23.9266 35.7813 23.8393 35.5702C23.752 35.3591 23.7071 35.1329 23.7073 34.9045C23.7071 34.6761 23.7519 34.4499 23.8392 34.2388C23.9266 34.0277 24.0546 33.8359 24.2161 33.6744C24.3777 33.5128 24.5694 33.3848 24.7805 33.2974C24.9916 33.2101 25.2178 33.1653 25.4462 33.1655C25.6747 33.1653 25.9009 33.2101 26.1119 33.2974C26.323 33.3847 26.5148 33.5128 26.6763 33.6743C26.8378 33.8358 26.9659 34.0276 27.0532 34.2387C27.1405 34.4497 27.1853 34.676 27.1851 34.9044C27.1853 35.1328 27.1405 35.359 27.0532 35.5701C26.9659 35.7811 26.8378 35.9729 26.6763 36.1344C26.5148 36.2959 26.323 36.424 26.1119 36.5113C25.9009 36.5986 25.6747 36.6435 25.4462 36.6433V36.6434Z" fill="#535353"/>
</g>
<defs>
<clipPath id="clip0_17_501">
<rect width="40" height="39.84" fill="white"/>
</clipPath>
</defs>
</svg>
