<svg width="45" height="45" viewBox="0 0 45 45" fill="none" xmlns="http://www.w3.org/2000/svg">
<path d="M37.5609 7.13672V37.8633C37.5609 38.2362 37.4127 38.5939 37.149 38.8576C36.8853 39.1214 36.5276 39.2695 36.1546 39.2695H14.1609C13.7879 39.2695 13.4302 39.1214 13.1665 38.8576C12.9028 38.5939 12.7546 38.2362 12.7546 37.8633V16.2352L20.489 5.73047H36.1546C36.5276 5.73047 36.8853 5.87863 37.149 6.14235C37.4127 6.40607 37.5609 6.76376 37.5609 7.13672Z" fill="#C1C1C1"/>
<path d="M36.1546 39.9727H14.1609C13.6014 39.9727 13.0649 39.7504 12.6693 39.3548C12.2738 38.9592 12.0515 38.4227 12.0515 37.8633V16.2352C12.053 16.0854 12.1023 15.9401 12.1921 15.8203L19.9265 5.31562C19.9913 5.227 20.0759 5.15477 20.1735 5.10472C20.2712 5.05466 20.3793 5.02816 20.489 5.02734H36.1546C36.7141 5.02734 37.2506 5.24958 37.6462 5.64517C38.0418 6.04075 38.264 6.57728 38.264 7.13672V37.8633C38.264 38.4227 38.0418 38.9592 37.6462 39.3548C37.2506 39.7504 36.7141 39.9727 36.1546 39.9727ZM13.4578 16.4672V37.8633C13.4578 38.0498 13.5318 38.2286 13.6637 38.3605C13.7956 38.4923 13.9744 38.5664 14.1609 38.5664H36.1546C36.3411 38.5664 36.52 38.4923 36.6518 38.3605C36.7837 38.2286 36.8578 38.0498 36.8578 37.8633V7.13672C36.8578 6.95024 36.7837 6.7714 36.6518 6.63953C36.52 6.50767 36.3411 6.43359 36.1546 6.43359H20.8546L13.4578 16.4672Z" fill="#7A7A7A"/>
<path d="M20.489 5.74453V14.7656C20.489 15.1386 20.3409 15.4963 20.0771 15.76C19.8134 16.0237 19.4557 16.1719 19.0828 16.1719H12.7898L20.489 5.74453Z" fill="#CFD0D1"/>
<path d="M19.0829 16.875H12.79C12.6606 16.874 12.534 16.8374 12.4241 16.7691C12.3142 16.7008 12.2252 16.6035 12.1671 16.4879C12.1089 16.3723 12.0838 16.2429 12.0944 16.114C12.1051 15.985 12.1511 15.8615 12.2275 15.757L19.9618 5.31562C20.05 5.19802 20.1728 5.11102 20.313 5.06684C20.4532 5.02266 20.6037 5.02352 20.7434 5.0693C20.8831 5.11508 21.0049 5.20348 21.0917 5.32207C21.1785 5.44066 21.226 5.58349 21.2275 5.73046V14.7656C21.2275 15.0456 21.1718 15.3228 21.0636 15.581C20.9554 15.8393 20.7969 16.0734 20.5973 16.2697C20.3977 16.4661 20.161 16.6207 19.901 16.7246C19.641 16.8285 19.3629 16.8797 19.0829 16.875ZM14.1611 15.4687H19.0829C19.2694 15.4687 19.4483 15.3947 19.5801 15.2628C19.712 15.1309 19.7861 14.9521 19.7861 14.7656V7.88202L14.1611 15.4687Z" fill="#7A7A7A"/>
<path d="M28.0547 24.9398H8.84534C8.06869 24.9398 7.43909 25.5694 7.43909 26.3461V33.4055C7.43909 34.1821 8.06869 34.8117 8.84534 34.8117H28.0547C28.8314 34.8117 29.461 34.1821 29.461 33.4055V26.3461C29.461 25.5694 28.8314 24.9398 28.0547 24.9398Z" fill="#2C2C2C"/>
<path d="M28.0547 35.5148H8.84534C8.2859 35.5148 7.74937 35.2926 7.35378 34.897C6.9582 34.5014 6.73596 33.9649 6.73596 33.4055V26.3742C6.73596 25.8148 6.9582 25.2783 7.35378 24.8827C7.74937 24.4871 8.2859 24.2648 8.84534 24.2648H28.0547C28.6142 24.2648 29.1507 24.4871 29.5463 24.8827C29.9419 25.2783 30.1641 25.8148 30.1641 26.3742V33.4055C30.1641 33.9649 29.9419 34.5014 29.5463 34.897C29.1507 35.2926 28.6142 35.5148 28.0547 35.5148ZM8.84534 25.6711C8.65886 25.6711 8.48001 25.7452 8.34815 25.877C8.21629 26.0089 8.14221 26.1877 8.14221 26.3742V33.4055C8.14221 33.592 8.21629 33.7708 8.34815 33.9027C8.48001 34.0345 8.65886 34.1086 8.84534 34.1086H28.0547C28.2412 34.1086 28.42 34.0345 28.5519 33.9027C28.6838 33.7708 28.7578 33.592 28.7578 33.4055V26.3742C28.7578 26.1877 28.6838 26.0089 28.5519 25.877C28.42 25.7452 28.2412 25.6711 28.0547 25.6711H8.84534Z" fill="#7A7A7A"/>
<path d="M13.0289 30.7547L14.168 30.5438C14.2131 30.6932 14.3067 30.8234 14.434 30.9138C14.5614 31.0042 14.7151 31.0497 14.8711 31.043C15.1805 31.043 15.3281 30.9586 15.3281 30.7899C15.3303 30.7486 15.3217 30.7075 15.3032 30.6705C15.2848 30.6335 15.257 30.602 15.2227 30.5789C15.1046 30.5131 14.9762 30.468 14.843 30.4453C14.3517 30.3963 13.8852 30.2058 13.5 29.8969C13.3061 29.6781 13.2008 29.3947 13.2047 29.1024C13.2002 28.917 13.2362 28.7328 13.3103 28.5627C13.3844 28.3927 13.4947 28.2409 13.6336 28.118C13.9771 27.8376 14.4148 27.6993 14.8571 27.7313C15.2007 27.6971 15.546 27.7789 15.8378 27.9636C16.1296 28.1484 16.3512 28.4255 16.4672 28.7508L15.4688 29.0742C15.425 28.9423 15.3381 28.8289 15.222 28.7523C15.106 28.6758 14.9675 28.6406 14.8289 28.6524C14.5617 28.6524 14.4281 28.7438 14.4281 28.9125C14.4279 28.9481 14.436 28.9831 14.4519 29.0149C14.4678 29.0467 14.491 29.0743 14.5196 29.0953C14.6286 29.1561 14.7477 29.1966 14.8711 29.2149C15.2157 29.2809 15.5543 29.375 15.8836 29.4961C16.0883 29.5805 16.2624 29.7252 16.3828 29.911C16.5249 30.1172 16.5964 30.3639 16.5867 30.6141C16.5923 30.812 16.5505 31.0084 16.4649 31.187C16.3793 31.3655 16.2523 31.521 16.0946 31.6407C15.7265 31.9163 15.2742 32.0555 14.8149 32.0344C14.4123 32.0755 14.0087 31.9681 13.6798 31.7325C13.3509 31.4968 13.1194 31.1491 13.0289 30.7547ZM19.1953 31.9852C19.0636 32.0131 18.9293 32.0273 18.7946 32.0274C18.5304 32.0395 18.2668 31.9921 18.0234 31.8886C17.78 31.7852 17.5629 31.6283 17.3883 31.4297C17.0334 30.9972 16.8506 30.4489 16.875 29.8899C16.8523 29.328 17.0319 28.7766 17.3813 28.336C17.5597 28.1505 17.7737 28.003 18.0105 27.9022C18.2473 27.8015 18.502 27.7495 18.7594 27.7495C19.0168 27.7495 19.2715 27.8015 19.5083 27.9022C19.7451 28.003 19.9591 28.1505 20.1375 28.336C20.5038 28.7601 20.6927 29.309 20.6649 29.8688C20.6886 30.199 20.6377 30.5304 20.516 30.8383C20.3942 31.1463 20.2048 31.4229 19.9617 31.6477C20.0039 31.7672 20.1235 31.8235 20.3344 31.8235C20.443 31.8207 20.5512 31.809 20.6578 31.7883V32.6953C20.4469 32.6953 20.2781 32.6953 20.1516 32.6953C19.9502 32.7016 19.7509 32.653 19.575 32.5547C19.3784 32.4223 19.2419 32.2176 19.1953 31.9852ZM18.7805 31.0782C18.8743 31.0824 18.9671 31.0578 19.0464 31.0074C19.1256 30.9571 19.1875 30.8836 19.2235 30.7969C19.3385 30.4651 19.3863 30.1138 19.3641 29.7633C19.3641 29.0602 19.1742 28.6735 18.8016 28.6735C18.4289 28.6735 18.2039 29.0883 18.2039 29.918C18.2039 30.7477 18.3938 31.0782 18.7805 31.0782ZM23.9836 30.9375V31.9641H21.1711V27.7946H22.3946V30.9375H23.9836Z" fill="#C1C1C1"/>
</svg>
